<?xml version="1.0" standalone="no"?>
<!DOCTYPE svg PUBLIC "-//W3C//DTD SVG 20010904//EN"
 "http://www.w3.org/TR/2001/REC-SVG-20010904/DTD/svg10.dtd">
<svg version="1.0" xmlns="http://www.w3.org/2000/svg"
 width="256.000000pt" height="256.000000pt" viewBox="0 0 256.000000 256.000000"
 preserveAspectRatio="xMidYMid meet">
<metadata>
Created by potrace 1.11, written by Peter Selinger 2001-2013
</metadata>
<g transform="translate(0.000000,256.000000) scale(0.100000,-0.100000)"
fill="#000000" stroke="none">
<path d="M0 1280 l0 -1280 1280 0 1280 0 0 1280 0 1280 -1280 0 -1280 0 0
-1280z m756 200 c68 -305 131 -588 139 -627 l16 -73 54 0 c54 0 54 0 65 38 6
20 86 298 178 616 l168 579 79 -2 c44 -1 81 -4 82 -5 2 -2 -135 -481 -183
-637 -4 -14 16 -22 107 -44 l111 -28 257 257 256 256 70 -20 c39 -11 77 -22
85 -26 10 -4 -71 -90 -272 -287 l-287 -282 99 -360 c55 -198 102 -372 105
-387 l6 -26 -82 24 c-46 13 -86 27 -90 32 -4 4 -47 156 -95 337 -48 182 -92
335 -98 341 -11 12 -207 66 -213 60 -2 -2 -41 -131 -87 -287 l-82 -284 -156
-3 c-85 -1 -165 1 -178 6 -22 8 -33 52 -176 676 -84 367 -155 678 -158 692
l-7 25 82 -3 83 -3 122 -555z"/>
</g>
</svg>
